<svg xmlns="http://www.w3.org/2000/svg" xmlns:xlink="http://www.w3.org/1999/xlink" width="1728" zoomAndPan="magnify" viewBox="0 0 1296 1727.999927" height="2304" preserveAspectRatio="xMidYMid meet" version="1.2"><defs><clipPath id="50d2f3988e"><path d="M 0 0 L 1296 0 L 1296 1727 L 0 1727 Z M 0 0 "/></clipPath><clipPath id="c3f531a524"><path d="M 432.234375 1690.578125 C 498.675781 1713.171875 574.210938 1728 648.347656 1728 C 722.488281 1728 793.828125 1715.289062 859.570312 1692.695312 C 860.96875 1691.988281 862.367188 1691.988281 863.765625 1691.28125 C 1110.65625 1600.902344 1292.503906 1362.242188 1296 1080.378906 L 1296 0 L 0 0 L 0 1079.578125 C 3.496094 1363.652344 182.546875 1602.316406 432.234375 1690.578125 Z M 432.234375 1690.578125 "/></clipPath><clipPath id="7048bdcc57"><path d="M 432.234375 1690.578125 C 498.675781 1713.171875 574.210938 1728 648.347656 1728 C 722.488281 1728 793.828125 1715.289062 859.570312 1692.695312 C 860.96875 1691.988281 862.367188 1691.988281 863.765625 1691.28125 C 1110.65625 1600.902344 1292.503906 1362.242188 1296 1080.378906 L 1296 0 L 0 0 L 0 1079.578125 C 3.496094 1363.652344 182.546875 1602.316406 432.234375 1690.578125 Z M 432.234375 1690.578125 "/></clipPath><clipPath id="f7414f1bfe"><path d="M 129.59375 500.011719 L 344.960938 500.011719 L 344.960938 1218.460938 L 129.59375 1218.460938 Z M 129.59375 500.011719 "/></clipPath><clipPath id="d76f655601"><path d="M 344.960938 1121.066406 L 344.960938 597.210938 L 237.277344 500.011719 L 129.59375 597.210938 L 129.59375 1121.066406 L 237.277344 1218.265625 Z M 344.960938 1121.066406 "/></clipPath><clipPath id="e354b886c9"><path d="M 129.710938 500.027344 L 344.960938 500.027344 L 344.960938 1218 L 129.710938 1218 Z M 129.710938 500.027344 "/></clipPath><clipPath id="37e1aaf6af"><path d="M 344.960938 1120.746094 L 344.960938 597.175781 L 237.335938 500.027344 L 129.710938 597.175781 L 129.710938 1120.746094 L 237.335938 1217.894531 Z M 344.960938 1120.746094 "/></clipPath><clipPath id="46e7ae35e1"><path d="M 951.023438 500.015625 L 1166.390625 500.015625 L 1166.390625 1220.988281 L 951.023438 1220.988281 Z M 951.023438 500.015625 "/></clipPath><clipPath id="2a4f8d9c94"><path d="M 1166.390625 1123.691406 L 1166.390625 597.214844 L 1058.707031 500.015625 L 951.023438 597.214844 L 951.023438 1123.691406 L 1058.707031 1220.890625 Z M 1166.390625 1123.691406 "/></clipPath><clipPath id="73fe5b58e2"><path d="M 951.140625 500.027344 L 1166.390625 500.027344 L 1166.390625 1220.765625 L 951.140625 1220.765625 Z M 951.140625 500.027344 "/></clipPath><clipPath id="37d646f861"><path d="M 1166.390625 1123.367188 L 1166.390625 597.175781 L 1058.765625 500.027344 L 951.140625 597.175781 L 951.140625 1123.367188 L 1058.765625 1220.515625 Z M 1166.390625 1123.367188 "/></clipPath><clipPath id="4c76c2b3a3"><path d="M 0 1006.398438 L 1296 1006.398438 L 1296 1728 L 0 1728 Z M 0 1006.398438 "/></clipPath><clipPath id="13439cf3c8"><path d="M 432.234375 1690.578125 C 498.675781 1713.171875 574.210938 1728 648.347656 1728 C 722.488281 1728 793.828125 1715.289062 859.570312 1692.695312 C 860.96875 1691.988281 862.367188 1691.988281 863.765625 1691.28125 C 1110.65625 1600.902344 1292.503906 1362.242188 1296 1102.734375 L 1296 1006.398438 L 0 1006.398438 L 0 1102.664062 C 3.496094 1363.652344 182.546875 1602.316406 432.234375 1690.578125 Z M 432.234375 1690.578125 "/></clipPath><clipPath id="e1f1d537b1"><path d="M 0.0078125 1006.398438 L 1295.824219 1006.398438 L 1295.824219 1727.898438 L 0.0078125 1727.898438 Z M 0.0078125 1006.398438 "/></clipPath><clipPath id="14b8585599"><path d="M 432.179688 1690.480469 C 498.613281 1713.074219 574.140625 1727.898438 648.265625 1727.898438 C 722.394531 1727.898438 793.722656 1715.1875 859.457031 1692.597656 C 860.855469 1691.890625 862.253906 1691.890625 863.652344 1691.1875 C 1110.507812 1600.820312 1292.328125 1362.191406 1295.824219 1102.722656 L 1295.824219 1006.398438 L 0.0078125 1006.398438 L 0.0078125 1102.648438 C 3.503906 1363.601562 182.527344 1602.230469 432.179688 1690.480469 Z M 432.179688 1690.480469 "/></clipPath><clipPath id="c831a9771e"><path d="M 404 72 L 892 72 L 892 560 L 404 560 Z M 404 72 "/></clipPath><clipPath id="0567e89c8b"><path d="M 654.34375 76.957031 L 722.125 222.1875 C 726.222656 230.96875 733.28125 238.027344 742.058594 242.125 L 887.292969 309.90625 C 889.757812 311.054688 891.332031 313.527344 891.332031 316.25 C 891.332031 318.96875 889.757812 321.441406 887.292969 322.59375 L 742.058594 390.371094 C 733.28125 394.46875 726.222656 401.527344 722.125 410.308594 L 654.34375 555.542969 C 653.195312 558.007812 650.71875 559.582031 648 559.582031 C 645.28125 559.582031 642.804688 558.007812 641.65625 555.542969 L 573.875 410.308594 C 569.777344 401.527344 562.71875 394.46875 553.941406 390.371094 L 408.707031 322.59375 C 406.242188 321.441406 404.667969 318.96875 404.667969 316.25 C 404.667969 313.527344 406.242188 311.054688 408.707031 309.90625 L 553.941406 242.125 C 562.71875 238.027344 569.777344 230.96875 573.875 222.1875 L 641.65625 76.957031 C 642.804688 74.492188 645.28125 72.914062 648 72.914062 C 650.71875 72.914062 653.195312 74.492188 654.34375 76.957031 Z M 654.34375 76.957031 "/></clipPath><clipPath id="4350d2c366"><path d="M 404 72 L 892 72 L 892 560 L 404 560 Z M 404 72 "/></clipPath><clipPath id="3eca42b2b1"><path d="M 654.203125 76.949219 L 721.949219 222.101562 C 726.042969 230.878906 733.097656 237.933594 741.875 242.027344 L 887.027344 309.773438 C 889.492188 310.921875 891.066406 313.394531 891.066406 316.113281 C 891.066406 318.832031 889.492188 321.304688 887.027344 322.453125 L 741.875 390.195312 C 733.097656 394.292969 726.042969 401.347656 721.949219 410.121094 L 654.203125 555.277344 C 653.054688 557.742188 650.582031 559.316406 647.863281 559.316406 C 645.144531 559.316406 642.671875 557.742188 641.523438 555.277344 L 573.78125 410.121094 C 569.683594 401.347656 562.628906 394.292969 553.855469 390.195312 L 408.699219 322.453125 C 406.234375 321.304688 404.660156 318.832031 404.660156 316.113281 C 404.660156 313.394531 406.234375 310.921875 408.699219 309.773438 L 553.855469 242.027344 C 562.628906 237.933594 569.683594 230.878906 573.78125 222.101562 L 641.523438 76.949219 C 642.671875 74.484375 645.144531 72.910156 647.863281 72.910156 C 650.582031 72.910156 653.054688 74.484375 654.203125 76.949219 Z M 654.203125 76.949219 "/></clipPath></defs><g id="43a6a311f7"><g clip-rule="nonzero" clip-path="url(#50d2f3988e)"><g clip-rule="nonzero" clip-path="url(#c3f531a524)"><path style=" stroke:none;fill-rule:nonzero;fill:#f9dbbd;fill-opacity:1;" d="M 0 0 L 1296 0 L 1296 1726.3125 L 0 1726.3125 Z M 0 0 "/></g></g><g clip-rule="nonzero" clip-path="url(#7048bdcc57)"><path style="fill:none;stroke-width:40;stroke-linecap:butt;stroke-linejoin:miter;stroke:#000000;stroke-opacity:1;stroke-miterlimit:4;" d="M 576.312517 2254.104501 C 664.901072 2284.229505 765.614628 2304.000341 864.463601 2304.000341 C 963.317783 2304.000341 1058.437588 2287.052422 1146.093851 2256.927418 C 1147.958435 2255.984709 1149.823019 2255.984709 1151.687602 2255.042001 C 1480.875151 2134.536775 1723.338729 1816.323186 1728.000188 1440.505422 L 1728.000188 -0.000000000000056843 L -0.0000683913 -0.000000000000056843 L -0.0000683913 1439.437713 C 4.661391 1818.203394 243.395801 2136.422191 576.312517 2254.104501 Z M 576.312517 2254.104501 " transform="matrix(0.75,0,0,0.75,0.0000512935,0.000000000000042633)"/></g><g clip-rule="nonzero" clip-path="url(#f7414f1bfe)"><g clip-rule="nonzero" clip-path="url(#d76f655601)"><path style=" stroke:none;fill-rule:nonzero;fill:#252422;fill-opacity:1;" d="M 344.960938 500.011719 L 344.960938 1218.460938 L 129.59375 1218.460938 L 129.59375 500.011719 Z M 344.960938 500.011719 "/></g></g><g clip-rule="nonzero" clip-path="url(#e354b886c9)"><g clip-rule="nonzero" clip-path="url(#37e1aaf6af)"><path style="fill:none;stroke-width:40;stroke-linecap:butt;stroke-linejoin:miter;stroke:#000000;stroke-opacity:1;stroke-miterlimit:4;" d="M 828.02992 -0.00100396 L 129.594068 -0.00100396 L -0.000659224 143.569319 L 129.594068 287.139641 L 828.02992 287.139641 L 957.624647 143.569319 Z M 828.02992 -0.00100396 " transform="matrix(0,0.749633,-0.749633,0,344.960185,500.027838)"/></g></g><g clip-rule="nonzero" clip-path="url(#46e7ae35e1)"><g clip-rule="nonzero" clip-path="url(#2a4f8d9c94)"><path style=" stroke:none;fill-rule:nonzero;fill:#252422;fill-opacity:1;" d="M 1166.390625 500.015625 L 1166.390625 1220.988281 L 951.023438 1220.988281 L 951.023438 500.015625 Z M 1166.390625 500.015625 "/></g></g><g clip-rule="nonzero" clip-path="url(#73fe5b58e2)"><g clip-rule="nonzero" clip-path="url(#37d646f861)"><path style="fill:none;stroke-width:40;stroke-linecap:butt;stroke-linejoin:miter;stroke:#000000;stroke-opacity:1;stroke-miterlimit:4;" d="M 831.526264 -0.00135482 L 129.593908 -0.00135482 L -0.000819302 143.568968 L 129.593908 287.13929 L 831.526264 287.13929 L 961.120991 143.568968 Z M 831.526264 -0.00135482 " transform="matrix(0,0.749633,-0.749633,0,1166.389609,500.027958)"/></g></g><g clip-rule="nonzero" clip-path="url(#4c76c2b3a3)"><g clip-rule="nonzero" clip-path="url(#13439cf3c8)"><path style=" stroke:none;fill-rule:nonzero;fill:#450920;fill-opacity:1;" d="M 0 1006.398438 L 1296.628906 1006.398438 L 1296.628906 1728 L 0 1728 Z M 0 1006.398438 "/></g></g><g clip-rule="nonzero" clip-path="url(#e1f1d537b1)"><g clip-rule="nonzero" clip-path="url(#14b8585599)"><path style="fill:none;stroke-width:40;stroke-linecap:butt;stroke-linejoin:miter;stroke:#000000;stroke-opacity:1;stroke-miterlimit:4;" d="M 576.305038 912.228121 C 664.89468 942.357038 765.610899 962.125232 864.457083 962.125232 C 963.308475 962.125232 1058.425008 945.175112 1146.082237 915.051404 C 1147.947063 914.108573 1149.811888 914.108573 1151.676714 913.170952 C 1480.860134 792.665702 1723.318738 474.452458 1727.980803 128.449143 L 1727.980803 0.000152262 L 0.000949829 0.000152262 L 0.000949829 128.350172 C 4.663014 476.332911 243.391967 794.546155 576.305038 912.228121 Z M 576.305038 912.228121 " transform="matrix(0.749902,0,0,0.749902,0.00710022,1006.398323)"/></g></g><g clip-rule="nonzero" clip-path="url(#c831a9771e)"><g clip-rule="nonzero" clip-path="url(#0567e89c8b)"><path style=" stroke:none;fill-rule:nonzero;fill:#eb5e28;fill-opacity:1;" d="M 395.113281 63.363281 L 900.886719 63.363281 L 900.886719 569.136719 L 395.113281 569.136719 Z M 395.113281 63.363281 "/></g></g><g clip-rule="nonzero" clip-path="url(#4350d2c366)"><g clip-rule="nonzero" clip-path="url(#3eca42b2b1)"><path style="fill:none;stroke-width:40;stroke-linecap:butt;stroke-linejoin:miter;stroke:#000000;stroke-opacity:1;stroke-miterlimit:4;" d="M 345.636593 18.12519 L 436.012889 211.76486 C 441.474134 223.474226 450.8854 232.885493 462.594766 238.346737 L 656.234437 328.723034 C 659.522648 330.2551 661.622725 333.553733 661.622725 337.180667 C 661.622725 340.8076 659.522648 344.106233 656.234437 345.6383 L 462.594766 436.009385 C 450.8854 441.475841 441.474134 450.887107 436.012889 462.591262 L 345.636593 656.236144 C 344.104526 659.524355 340.805893 661.624432 337.17896 661.624432 C 333.552026 661.624432 330.253393 659.524355 328.721327 656.236144 L 238.350241 462.591262 C 232.883786 450.887107 223.472519 441.475841 211.768364 436.009385 L 18.123483 345.6383 C 14.835272 344.106233 12.735194 340.8076 12.735194 337.180667 C 12.735194 333.553733 14.835272 330.2551 18.123483 328.723034 L 211.768364 238.346737 C 223.472519 232.885493 232.883786 223.474226 238.350241 211.76486 L 328.721327 18.12519 C 330.253393 14.836979 333.552026 12.736901 337.17896 12.736901 C 340.805893 12.736901 344.104526 14.836979 345.636593 18.12519 Z M 345.636593 18.12519 " transform="matrix(0.7496,0,0,0.7496,395.113852,63.362572)"/></g></g></g></svg>