<svg xmlns="http://www.w3.org/2000/svg" xmlns:xlink="http://www.w3.org/1999/xlink" width="1728" zoomAndPan="magnify" viewBox="0 0 1296 1727.999927" height="2304" preserveAspectRatio="xMidYMid meet" version="1.0"><defs><clipPath id="a7492776c6"><path d="M 0 0 L 1296 0 L 1296 1727 L 0 1727 Z M 0 0 " clip-rule="nonzero"/></clipPath><clipPath id="7a1bf7e72a"><path d="M 432.234375 1690.578125 C 498.675781 1713.171875 574.210938 1728 648.347656 1728 C 722.488281 1728 793.828125 1715.289062 859.570312 1692.695312 C 860.96875 1691.988281 862.367188 1691.988281 863.765625 1691.28125 C 1110.65625 1600.902344 1292.503906 1362.242188 1296 1080.378906 L 1296 0 L 0 0 L 0 1079.578125 C 3.496094 1363.652344 182.546875 1602.316406 432.234375 1690.578125 Z M 432.234375 1690.578125 " clip-rule="nonzero"/></clipPath><clipPath id="a5807a3f28"><path d="M 432.234375 1690.578125 C 498.675781 1713.171875 574.210938 1728 648.347656 1728 C 722.488281 1728 793.828125 1715.289062 859.570312 1692.695312 C 860.96875 1691.988281 862.367188 1691.988281 863.765625 1691.28125 C 1110.65625 1600.902344 1292.503906 1362.242188 1296 1080.378906 L 1296 0 L 0 0 L 0 1079.578125 C 3.496094 1363.652344 182.546875 1602.316406 432.234375 1690.578125 Z M 432.234375 1690.578125 " clip-rule="nonzero"/></clipPath><clipPath id="5d100c7847"><path d="M 129.59375 500.011719 L 344.960938 500.011719 L 344.960938 1218.460938 L 129.59375 1218.460938 Z M 129.59375 500.011719 " clip-rule="nonzero"/></clipPath><clipPath id="606d4f4118"><path d="M 344.960938 1121.066406 L 344.960938 597.210938 L 237.277344 500.011719 L 129.59375 597.210938 L 129.59375 1121.066406 L 237.277344 1218.265625 Z M 344.960938 1121.066406 " clip-rule="nonzero"/></clipPath><clipPath id="31eee75cf0"><path d="M 129.710938 500.027344 L 344.960938 500.027344 L 344.960938 1218.511719 L 129.710938 1218.511719 Z M 129.710938 500.027344 " clip-rule="nonzero"/></clipPath><clipPath id="3863885246"><path d="M 344.960938 1121.050781 L 344.960938 597.222656 L 237.28125 500.027344 L 129.605469 597.222656 L 129.605469 1121.050781 L 237.28125 1218.246094 Z M 344.960938 1121.050781 " clip-rule="nonzero"/></clipPath><clipPath id="0ddcc28e5f"><path d="M 951.023438 500.015625 L 1166.390625 500.015625 L 1166.390625 1220.988281 L 951.023438 1220.988281 Z M 951.023438 500.015625 " clip-rule="nonzero"/></clipPath><clipPath id="9cdb919baf"><path d="M 1166.390625 1123.691406 L 1166.390625 597.214844 L 1058.707031 500.015625 L 951.023438 597.214844 L 951.023438 1123.691406 L 1058.707031 1220.890625 Z M 1166.390625 1123.691406 " clip-rule="nonzero"/></clipPath><clipPath id="5acd0587f6"><path d="M 951.140625 500.027344 L 1166.390625 500.027344 L 1166.390625 1220.765625 L 951.140625 1220.765625 Z M 951.140625 500.027344 " clip-rule="nonzero"/></clipPath><clipPath id="138a9fdda0"><path d="M 1166.390625 1123.671875 L 1166.390625 597.222656 L 1058.710938 500.027344 L 951.035156 597.222656 L 951.035156 1123.671875 L 1058.710938 1220.867188 Z M 1166.390625 1123.671875 " clip-rule="nonzero"/></clipPath><clipPath id="5cd04598e9"><path d="M 0 1006.398438 L 1296 1006.398438 L 1296 1728 L 0 1728 Z M 0 1006.398438 " clip-rule="nonzero"/></clipPath><clipPath id="7225c06b70"><path d="M 432.234375 1690.578125 C 498.675781 1713.171875 574.210938 1728 648.347656 1728 C 722.488281 1728 793.828125 1715.289062 859.570312 1692.695312 C 860.96875 1691.988281 862.367188 1691.988281 863.765625 1691.28125 C 1110.65625 1600.902344 1292.503906 1362.242188 1296 1102.734375 L 1296 1006.398438 L 0 1006.398438 L 0 1102.664062 C 3.496094 1363.652344 182.546875 1602.316406 432.234375 1690.578125 Z M 432.234375 1690.578125 " clip-rule="nonzero"/></clipPath><clipPath id="d7fc33adf0"><path d="M 0.0078125 1006.398438 L 1295.992188 1006.398438 L 1295.992188 1727.898438 L 0.0078125 1727.898438 Z M 0.0078125 1006.398438 " clip-rule="nonzero"/></clipPath><clipPath id="c37b875920"><path d="M 432.234375 1690.570312 C 498.675781 1713.164062 574.214844 1727.992188 648.347656 1727.992188 C 722.488281 1727.992188 793.824219 1715.28125 859.566406 1692.6875 C 860.96875 1691.980469 862.367188 1691.980469 863.765625 1691.277344 C 1110.652344 1600.894531 1292.496094 1362.238281 1295.992188 1102.734375 L 1295.992188 1006.398438 L 0.0078125 1006.398438 L 0.0078125 1102.660156 C 3.503906 1363.648438 182.550781 1602.308594 432.234375 1690.570312 Z M 432.234375 1690.570312 " clip-rule="nonzero"/></clipPath><clipPath id="d32b9f2036"><path d="M 404 72 L 892 72 L 892 560 L 404 560 Z M 404 72 " clip-rule="nonzero"/></clipPath><clipPath id="4b8be86271"><path d="M 654.34375 76.957031 L 722.125 222.1875 C 726.222656 230.96875 733.28125 238.027344 742.058594 242.125 L 887.292969 309.90625 C 889.757812 311.054688 891.332031 313.527344 891.332031 316.25 C 891.332031 318.96875 889.757812 321.441406 887.292969 322.59375 L 742.058594 390.371094 C 733.28125 394.46875 726.222656 401.527344 722.125 410.308594 L 654.34375 555.542969 C 653.195312 558.007812 650.71875 559.582031 648 559.582031 C 645.28125 559.582031 642.804688 558.007812 641.65625 555.542969 L 573.875 410.308594 C 569.777344 401.527344 562.71875 394.46875 553.941406 390.371094 L 408.707031 322.59375 C 406.242188 321.441406 404.667969 318.96875 404.667969 316.25 C 404.667969 313.527344 406.242188 311.054688 408.707031 309.90625 L 553.941406 242.125 C 562.71875 238.027344 569.777344 230.96875 573.875 222.1875 L 641.65625 76.957031 C 642.804688 74.492188 645.28125 72.914062 648 72.914062 C 650.71875 72.914062 653.195312 74.492188 654.34375 76.957031 Z M 654.34375 76.957031 " clip-rule="nonzero"/></clipPath><clipPath id="758b9d18e4"><path d="M 404 72 L 892 72 L 892 560 L 404 560 Z M 404 72 " clip-rule="nonzero"/></clipPath><clipPath id="f84219342c"><path d="M 654.34375 76.953125 L 722.121094 222.1875 C 726.21875 230.96875 733.277344 238.027344 742.058594 242.125 L 887.289062 309.902344 C 889.753906 311.054688 891.332031 313.527344 891.332031 316.246094 C 891.332031 318.96875 889.753906 321.441406 887.289062 322.589844 L 742.058594 390.371094 C 733.277344 394.46875 726.21875 401.527344 722.121094 410.308594 L 654.34375 555.539062 C 653.191406 558.003906 650.71875 559.578125 648 559.578125 C 645.277344 559.578125 642.804688 558.003906 641.65625 555.539062 L 573.875 410.308594 C 569.777344 401.527344 562.71875 394.46875 553.9375 390.371094 L 408.707031 322.589844 C 406.242188 321.441406 404.667969 318.96875 404.667969 316.246094 C 404.667969 313.527344 406.242188 311.054688 408.707031 309.902344 L 553.9375 242.125 C 562.71875 238.027344 569.777344 230.96875 573.875 222.1875 L 641.65625 76.953125 C 642.804688 74.492188 645.277344 72.914062 648 72.914062 C 650.71875 72.914062 653.191406 74.492188 654.34375 76.953125 Z M 654.34375 76.953125 " clip-rule="nonzero"/></clipPath></defs><g clip-path="url(#a7492776c6)"><g clip-path="url(#7a1bf7e72a)"><path fill="#fff3b0" d="M 0 0 L 1296 0 L 1296 1726.3125 L 0 1726.3125 Z M 0 0 " fill-opacity="1" fill-rule="nonzero"/></g></g><g clip-path="url(#a5807a3f28)"><path stroke-linecap="butt" transform="matrix(0.75, 0, 0, 0.75, 0.0000512935, 0.000000000000042633)" fill="none" stroke-linejoin="miter" d="M 576.312517 2254.104501 C 664.901072 2284.229505 765.614628 2304.000341 864.463601 2304.000341 C 963.317783 2304.000341 1058.437588 2287.052422 1146.093851 2256.927418 C 1147.958435 2255.984709 1149.823019 2255.984709 1151.687602 2255.042001 C 1480.875151 2134.536775 1723.338729 1816.323186 1728.000188 1440.505422 L 1728.000188 -0.000000000000056843 L -0.0000683913 -0.000000000000056843 L -0.0000683913 1439.437713 C 4.661391 1818.203394 243.395801 2136.422191 576.312517 2254.104501 Z M 576.312517 2254.104501 " stroke="#000000" stroke-width="40" stroke-opacity="1" stroke-miterlimit="4"/></g><g clip-path="url(#5d100c7847)"><g clip-path="url(#606d4f4118)"><path fill="#212529" d="M 344.960938 500.011719 L 344.960938 1218.460938 L 129.59375 1218.460938 L 129.59375 500.011719 Z M 344.960938 500.011719 " fill-opacity="1" fill-rule="nonzero"/></g></g><g clip-path="url(#31eee75cf0)"><g clip-path="url(#3863885246)"><path stroke-linecap="butt" transform="matrix(0, 0.75, -0.75, 0, 344.960185, 500.027838)" fill="none" stroke-linejoin="miter" d="M 828.030661 -0.00100347 L 129.593102 -0.00100347 L -0.000658901 143.571925 L 129.593102 287.139646 L 828.030661 287.139646 L 957.624422 143.571925 Z M 828.030661 -0.00100347 " stroke="#000000" stroke-width="40" stroke-opacity="1" stroke-miterlimit="4"/></g></g><g clip-path="url(#0ddcc28e5f)"><g clip-path="url(#9cdb919baf)"><path fill="#212529" d="M 1166.390625 500.015625 L 1166.390625 1220.988281 L 951.023438 1220.988281 L 951.023438 500.015625 Z M 1166.390625 500.015625 " fill-opacity="1" fill-rule="nonzero"/></g></g><g clip-path="url(#5acd0587f6)"><g clip-path="url(#138a9fdda0)"><path stroke-linecap="butt" transform="matrix(0, 0.75, -0.75, 0, 1166.389609, 500.027958)" fill="none" stroke-linejoin="miter" d="M 831.525293 -0.00135416 L 129.592942 -0.00135416 L -0.000818901 143.571575 L 129.592942 287.139295 L 831.525293 287.139295 L 961.119054 143.571575 Z M 831.525293 -0.00135416 " stroke="#000000" stroke-width="40" stroke-opacity="1" stroke-miterlimit="4"/></g></g><g clip-path="url(#5cd04598e9)"><g clip-path="url(#7225c06b70)"><path fill="#023047" d="M 0 1006.398438 L 1296.628906 1006.398438 L 1296.628906 1728 L 0 1728 Z M 0 1006.398438 " fill-opacity="1" fill-rule="nonzero"/></g></g><g clip-path="url(#d7fc33adf0)"><g clip-path="url(#c37b875920)"><path stroke-linecap="butt" transform="matrix(0.75, 0, 0, 0.75, 0.00710114, 1006.398323)" fill="none" stroke-linejoin="miter" d="M 576.30308 912.229396 C 664.891629 942.354398 765.610388 962.125233 864.454146 962.125233 C 963.308321 962.125233 1058.422913 945.177315 1146.07917 915.052313 C 1147.948962 914.109604 1149.813545 914.109604 1151.678129 913.172104 C 1480.860448 792.661677 1723.318802 474.453317 1727.980261 128.44808 L 1727.980261 0.000152243 L 0.00094848 0.000152243 L 0.00094848 128.349121 C 4.662407 476.333526 243.391594 794.547094 576.30308 912.229396 Z M 576.30308 912.229396 " stroke="#000000" stroke-width="40" stroke-opacity="1" stroke-miterlimit="4"/></g></g><g clip-path="url(#d32b9f2036)"><g clip-path="url(#4b8be86271)"><path fill="#ffb703" d="M 395.113281 63.363281 L 900.886719 63.363281 L 900.886719 569.136719 L 395.113281 569.136719 Z M 395.113281 63.363281 " fill-opacity="1" fill-rule="nonzero"/></g></g><g clip-path="url(#758b9d18e4)"><g clip-path="url(#f84219342c)"><path stroke-linecap="butt" transform="matrix(0.75, 0, 0, 0.75, 395.113852, 63.362572)" fill="none" stroke-linejoin="miter" d="M 345.639893 18.120739 L 436.009693 211.766588 C 441.473235 223.474922 450.884694 232.886382 462.593028 238.349924 L 656.233669 328.719723 C 659.520128 330.256181 661.624295 333.553057 661.624295 337.178057 C 661.624295 340.808266 659.520128 344.105141 656.233669 345.636391 L 462.593028 436.011399 C 450.884694 441.474941 441.473235 450.8864 436.009693 462.594734 L 345.639893 656.235376 C 344.103435 659.521834 340.80656 661.620793 337.181559 661.620793 C 333.551351 661.620793 330.254475 659.521834 328.723225 656.235376 L 238.348218 462.594734 C 232.884675 450.8864 223.473216 441.474941 211.764882 436.011399 L 18.124241 345.636391 C 14.837782 344.105141 12.738824 340.808266 12.738824 337.178057 C 12.738824 333.553057 14.837782 330.256181 18.124241 328.719723 L 211.764882 238.349924 C 223.473216 232.886382 232.884675 223.474922 238.348218 211.766588 L 328.723225 18.120739 C 330.254475 14.839488 333.551351 12.735321 337.181559 12.735321 C 340.80656 12.735321 344.103435 14.839488 345.639893 18.120739 Z M 345.639893 18.120739 " stroke="#000000" stroke-width="40" stroke-opacity="1" stroke-miterlimit="4"/></g></g></svg>