<svg xmlns="http://www.w3.org/2000/svg" xmlns:xlink="http://www.w3.org/1999/xlink" width="500" zoomAndPan="magnify" viewBox="0 0 375 374.999991" height="500" preserveAspectRatio="xMidYMid meet" version="1.0"><defs><clipPath id="c50d31de3d"><path d="M 0.0078125 105.027344 L 90 105.027344 L 90 374.996094 L 0.0078125 374.996094 Z M 0.0078125 105.027344 " clip-rule="nonzero"/></clipPath><clipPath id="59e694f585"><path d="M 0.0078125 138.824219 L 0.0078125 374.996094 L 90 374.996094 L 90 138.824219 L 45.003906 105.109375 Z M 0.0078125 138.824219 " clip-rule="nonzero"/></clipPath><clipPath id="b4df34d8f8"><path d="M 0.0078125 105 L 90 105 L 90 374.996094 L 0.0078125 374.996094 Z M 0.0078125 105 " clip-rule="nonzero"/></clipPath><clipPath id="92d6a3f3c4"><path d="M 0.0078125 138.828125 L 0.0078125 374.996094 L 89.996094 374.996094 L 89.996094 138.828125 L 45.003906 105.117188 Z M 0.0078125 138.828125 " clip-rule="nonzero"/></clipPath><clipPath id="4c5f7924b5"><path d="M 285 105.027344 L 374.988281 105.027344 L 374.988281 374.996094 L 285 374.996094 Z M 285 105.027344 " clip-rule="nonzero"/></clipPath><clipPath id="36ded8be68"><path d="M 285 138.824219 L 285 374.996094 L 374.988281 374.996094 L 374.988281 138.824219 L 329.996094 105.109375 Z M 285 138.824219 " clip-rule="nonzero"/></clipPath><clipPath id="e5b03e2f2a"><path d="M 285 105 L 375 105 L 375 374.996094 L 285 374.996094 Z M 285 105 " clip-rule="nonzero"/></clipPath><clipPath id="17239c60cf"><path d="M 285 138.828125 L 285 374.996094 L 374.988281 374.996094 L 374.988281 138.828125 L 329.992188 105.117188 Z M 285 138.828125 " clip-rule="nonzero"/></clipPath><clipPath id="4db12e4cc8"><path d="M 98.144531 4.394531 L 276.855469 4.394531 L 276.855469 183 L 98.144531 183 Z M 98.144531 4.394531 " clip-rule="nonzero"/></clipPath><clipPath id="e0728478ef"><path d="M 190.671875 6.796875 L 214.160156 57.121094 C 216.207031 61.511719 219.738281 65.042969 224.128906 67.089844 L 274.453125 90.578125 C 275.6875 91.152344 276.472656 92.390625 276.472656 93.75 C 276.472656 95.109375 275.6875 96.347656 274.453125 96.921875 L 224.128906 120.410156 C 219.738281 122.457031 216.207031 125.988281 214.160156 130.378906 L 190.671875 180.703125 C 190.097656 181.9375 188.859375 182.722656 187.5 182.722656 C 186.140625 182.722656 184.902344 181.9375 184.328125 180.703125 L 160.839844 130.378906 C 158.792969 125.988281 155.261719 122.457031 150.871094 120.410156 L 100.546875 96.921875 C 99.3125 96.347656 98.527344 95.109375 98.527344 93.75 C 98.527344 92.390625 99.3125 91.152344 100.546875 90.578125 L 150.871094 67.089844 C 155.261719 65.042969 158.792969 61.511719 160.839844 57.121094 L 184.328125 6.796875 C 184.902344 5.5625 186.140625 4.777344 187.5 4.777344 C 188.859375 4.777344 190.097656 5.5625 190.671875 6.796875 Z M 190.671875 6.796875 " clip-rule="nonzero"/></clipPath><clipPath id="8612ae2c89"><path d="M 98 4 L 277 4 L 277 183 L 98 183 Z M 98 4 " clip-rule="nonzero"/></clipPath><clipPath id="47cf0283e7"><path d="M 190.671875 6.796875 L 214.160156 57.121094 C 216.207031 61.511719 219.738281 65.042969 224.128906 67.089844 L 274.453125 90.578125 C 275.6875 91.152344 276.472656 92.390625 276.472656 93.75 C 276.472656 95.109375 275.6875 96.347656 274.453125 96.921875 L 224.128906 120.410156 C 219.738281 122.457031 216.207031 125.988281 214.160156 130.378906 L 190.671875 180.703125 C 190.097656 181.9375 188.859375 182.722656 187.5 182.722656 C 186.140625 182.722656 184.902344 181.9375 184.328125 180.703125 L 160.839844 130.378906 C 158.792969 125.988281 155.261719 122.457031 150.871094 120.410156 L 100.546875 96.921875 C 99.3125 96.347656 98.527344 95.109375 98.527344 93.75 C 98.527344 92.390625 99.3125 91.152344 100.546875 90.578125 L 150.871094 67.089844 C 155.261719 65.042969 158.792969 61.511719 160.839844 57.121094 L 184.328125 6.796875 C 184.902344 5.5625 186.140625 4.777344 187.5 4.777344 C 188.859375 4.777344 190.097656 5.5625 190.671875 6.796875 Z M 190.671875 6.796875 " clip-rule="nonzero"/></clipPath></defs><g clip-path="url(#c50d31de3d)"><g clip-path="url(#59e694f585)"><path fill="#212529" d="M 0.0078125 374.996094 L 0.0078125 105.027344 L 90 105.027344 L 90 374.996094 Z M 0.0078125 374.996094 " fill-opacity="1" fill-rule="nonzero"/></g></g><g clip-path="url(#b4df34d8f8)"><g clip-path="url(#92d6a3f3c4)"><path stroke-linecap="butt" transform="matrix(0, -0.75, 0.75, 0, 0.00866768, 374.995639)" fill="none" stroke-linejoin="miter" d="M 314.890019 -0.00114024 L -0.0006069 -0.00114024 L -0.0006069 119.983235 L 314.890019 119.983235 L 359.837935 59.993652 Z M 314.890019 -0.00114024 " stroke="#000000" stroke-width="20" stroke-opacity="1" stroke-miterlimit="4"/></g></g><g clip-path="url(#4c5f7924b5)"><g clip-path="url(#36ded8be68)"><path fill="#212529" d="M 285 374.996094 L 285 105.027344 L 374.988281 105.027344 L 374.988281 374.996094 Z M 285 374.996094 " fill-opacity="1" fill-rule="nonzero"/></g></g><g clip-path="url(#e5b03e2f2a)"><g clip-path="url(#17239c60cf)"><path stroke-linecap="butt" transform="matrix(0, -0.75, 0.75, 0, 284.999107, 374.995639)" fill="none" stroke-linejoin="miter" d="M 314.890019 0.00119015 L -0.0006069 0.00119015 L -0.0006069 119.985565 L 314.890019 119.985565 L 359.837935 59.990774 Z M 314.890019 0.00119015 " stroke="#000000" stroke-width="20" stroke-opacity="1" stroke-miterlimit="4"/></g></g><g clip-path="url(#4db12e4cc8)"><g clip-path="url(#e0728478ef)"><path fill="#ffb703" d="M 93.75 0 L 281.25 0 L 281.25 187.5 L 93.75 187.5 Z M 93.75 0 " fill-opacity="1" fill-rule="nonzero"/></g></g><g clip-path="url(#8612ae2c89)"><g clip-path="url(#47cf0283e7)"><path stroke-linecap="butt" transform="matrix(0.75, 0, 0, 0.75, 93.749998, 0)" fill="none" stroke-linejoin="miter" d="M 129.229169 9.0625 L 160.546877 76.161458 C 163.276044 82.015625 167.984377 86.723958 173.838544 89.453125 L 240.937503 120.770834 C 242.583336 121.536459 243.630211 123.1875 243.630211 125 C 243.630211 126.8125 242.583336 128.463542 240.937503 129.229167 L 173.838544 160.546875 C 167.984377 163.276042 163.276044 167.984375 160.546877 173.838542 L 129.229169 240.9375 C 128.463544 242.583334 126.812502 243.630209 125.000002 243.630209 C 123.187502 243.630209 121.536461 242.583334 120.770836 240.9375 L 89.453127 173.838542 C 86.723961 167.984375 82.015627 163.276042 76.161461 160.546875 L 9.062502 129.229167 C 7.416669 128.463542 6.369794 126.8125 6.369794 125 C 6.369794 123.1875 7.416669 121.536459 9.062502 120.770834 L 76.161461 89.453125 C 82.015627 86.723958 86.723961 82.015625 89.453127 76.161458 L 120.770836 9.0625 C 121.536461 7.416667 123.187502 6.369792 125.000002 6.369792 C 126.812502 6.369792 128.463544 7.416667 129.229169 9.0625 Z M 129.229169 9.0625 " stroke="#000000" stroke-width="20" stroke-opacity="1" stroke-miterlimit="4"/></g></g></svg>