<svg xmlns="http://www.w3.org/2000/svg" xmlns:xlink="http://www.w3.org/1999/xlink" width="500" zoomAndPan="magnify" viewBox="0 0 375 374.999991" height="500" preserveAspectRatio="xMidYMid meet" version="1.2"><defs><clipPath id="2c40aded44"><path d="M 63 4 L 373 4 L 373 314 L 63 314 Z M 63 4 "/></clipPath><clipPath id="4e42ae6d6f"><path d="M 60.1875 250.351562 L 326.324219 -15.785156 L 392.601562 50.488281 L 126.464844 316.625 Z M 60.1875 250.351562 "/></clipPath><clipPath id="07ecbd697d"><path d="M 302.410156 8.128906 L 65.492188 245.046875 C 62.5625 247.976562 62.5625 252.722656 65.492188 255.652344 L 121.160156 311.320312 C 124.089844 314.25 128.839844 314.25 131.765625 311.320312 L 368.6875 74.402344 C 371.976562 71.113281 373.300781 66.335938 372.171875 61.824219 L 362.558594 23.351562 C 361.4375 18.871094 357.941406 15.375 353.464844 14.257812 L 314.992188 4.640625 C 310.476562 3.515625 305.699219 4.835938 302.410156 8.128906 Z M 302.410156 8.128906 "/></clipPath><clipPath id="1fba86b7ad"><path d="M 23 255 L 120 255 L 120 352 L 23 352 Z M 23 255 "/></clipPath><clipPath id="0f1f149215"><path d="M 11.871094 323.355469 L 91.421875 243.804688 L 131.195312 283.578125 L 51.644531 363.128906 Z M 11.871094 323.355469 "/></clipPath><clipPath id="6bf4bb4dd0"><path d="M 71.535156 263.691406 C 82.515625 252.707031 100.324219 252.707031 111.308594 263.691406 C 122.292969 274.675781 122.292969 292.484375 111.308594 303.464844 L 71.535156 343.242188 C 60.550781 354.226562 42.742188 354.226562 31.757812 343.242188 C 20.773438 332.257812 20.773438 314.449219 31.757812 303.464844 Z M 71.535156 263.691406 "/></clipPath><clipPath id="46ce304a65"><path d="M 46 203 L 172 203 L 172 329 L 46 329 Z M 46 203 "/></clipPath><clipPath id="403daa0324"><path d="M 77.273438 191.855469 L 183.183594 297.769531 L 140.6875 340.265625 L 34.773438 234.355469 Z M 77.273438 191.855469 "/></clipPath><clipPath id="acb374685f"><path d="M 163.253906 277.835938 C 174.238281 288.820312 173.628906 307.238281 161.890625 318.972656 C 150.15625 330.710938 131.738281 331.320312 120.753906 320.335938 L 54.660156 254.242188 C 43.679688 243.257812 44.289062 224.839844 56.023438 213.105469 C 67.757812 201.371094 86.175781 200.761719 97.160156 211.742188 Z M 163.253906 277.835938 "/></clipPath><clipPath id="cb0a11d10c"><path d="M 140 141 L 255 141 L 255 256 L 140 256 Z M 140 141 "/></clipPath><clipPath id="9764144974"><path d="M 131.199219 237.96875 L 237.5 131.664062 L 264.207031 158.371094 L 157.902344 264.671875 Z M 131.199219 237.96875 "/></clipPath><clipPath id="d982945384"><path d="M 217.542969 151.621094 C 228.523438 140.640625 243.40625 137.714844 250.78125 145.089844 C 258.15625 152.464844 255.230469 167.34375 244.246094 178.328125 L 177.789062 244.785156 C 166.808594 255.769531 151.925781 258.695312 144.550781 251.320312 C 137.175781 243.945312 140.101562 229.0625 151.085938 218.078125 Z M 217.542969 151.621094 "/></clipPath><clipPath id="0dd6523815"><path d="M 0.128906 281.015625 L 94.113281 281.015625 L 94.113281 375 L 0.128906 375 Z M 0.128906 281.015625 "/></clipPath><clipPath id="27e1b17791"><path d="M 47.121094 281.015625 C 21.167969 281.015625 0.128906 302.054688 0.128906 328.007812 C 0.128906 353.960938 21.167969 375 47.121094 375 C 73.074219 375 94.113281 353.960938 94.113281 328.007812 C 94.113281 302.054688 73.074219 281.015625 47.121094 281.015625 Z M 47.121094 281.015625 "/></clipPath></defs><g id="2ed66daf6e"><g clip-rule="nonzero" clip-path="url(#2c40aded44)"><g clip-rule="nonzero" clip-path="url(#4e42ae6d6f)"><g clip-rule="nonzero" clip-path="url(#07ecbd697d)"><path style=" stroke:none;fill-rule:nonzero;fill:#6bbaec;fill-opacity:1;" d="M 60.1875 250.351562 L 327.621094 -17.082031 L 393.894531 49.195312 L 126.464844 316.625 Z M 60.1875 250.351562 "/></g></g></g><g clip-rule="nonzero" clip-path="url(#1fba86b7ad)"><g clip-rule="nonzero" clip-path="url(#0f1f149215)"><g clip-rule="nonzero" clip-path="url(#6bf4bb4dd0)"><path style=" stroke:none;fill-rule:nonzero;fill:#000000;fill-opacity:1;" d="M 11.871094 323.355469 L 91.421875 243.804688 L 131.195312 283.578125 L 51.644531 363.128906 Z M 11.871094 323.355469 "/></g></g></g><g clip-rule="nonzero" clip-path="url(#46ce304a65)"><g clip-rule="nonzero" clip-path="url(#403daa0324)"><g clip-rule="nonzero" clip-path="url(#acb374685f)"><path style=" stroke:none;fill-rule:nonzero;fill:#ffb703;fill-opacity:1;" d="M 77.273438 191.855469 L 183.183594 297.769531 L 140.6875 340.265625 L 34.773438 234.355469 Z M 77.273438 191.855469 "/></g></g></g><g clip-rule="nonzero" clip-path="url(#cb0a11d10c)"><g clip-rule="nonzero" clip-path="url(#9764144974)"><g clip-rule="nonzero" clip-path="url(#d982945384)"><path style=" stroke:none;fill-rule:nonzero;fill:#ffffff;fill-opacity:1;" d="M 131.199219 237.96875 L 237.394531 131.769531 L 264.101562 158.476562 L 157.902344 264.671875 Z M 131.199219 237.96875 "/></g></g></g><g clip-rule="nonzero" clip-path="url(#0dd6523815)"><g clip-rule="nonzero" clip-path="url(#27e1b17791)"><path style=" stroke:none;fill-rule:nonzero;fill:#0f0a0a;fill-opacity:1;" d="M 0.128906 281.015625 L 94.113281 281.015625 L 94.113281 375 L 0.128906 375 Z M 0.128906 281.015625 "/></g></g></g></svg>