<svg xmlns="http://www.w3.org/2000/svg" xmlns:xlink="http://www.w3.org/1999/xlink" width="500" zoomAndPan="magnify" viewBox="0 0 375 374.999991" height="500" preserveAspectRatio="xMidYMid meet" version="1.0"><defs><clipPath id="c71542bb89"><path d="M 9 9 L 366 9 L 366 366 L 9 366 Z M 9 9 " clip-rule="nonzero"/></clipPath><clipPath id="0f4c1dcc61"><path d="M 193.84375 13.59375 L 240.816406 114.246094 C 244.917969 123.027344 251.972656 130.082031 260.753906 134.183594 L 361.40625 181.15625 C 363.871094 182.304688 365.449219 184.78125 365.449219 187.5 C 365.449219 190.21875 363.871094 192.695312 361.40625 193.84375 L 260.753906 240.816406 C 251.972656 244.917969 244.917969 251.972656 240.816406 260.753906 L 193.84375 361.40625 C 192.695312 363.871094 190.21875 365.449219 187.5 365.449219 C 184.78125 365.449219 182.304688 363.871094 181.15625 361.40625 L 134.183594 260.753906 C 130.082031 251.972656 123.027344 244.917969 114.246094 240.816406 L 13.59375 193.84375 C 11.128906 192.695312 9.550781 190.21875 9.550781 187.5 C 9.550781 184.78125 11.128906 182.304688 13.59375 181.15625 L 114.246094 134.183594 C 123.027344 130.082031 130.082031 123.027344 134.183594 114.246094 L 181.15625 13.59375 C 182.304688 11.128906 184.78125 9.550781 187.5 9.550781 C 190.21875 9.550781 192.695312 11.128906 193.84375 13.59375 Z M 193.84375 13.59375 " clip-rule="nonzero"/></clipPath></defs><g clip-path="url(#c71542bb89)"><g clip-path="url(#0f4c1dcc61)"><rect x="-37.5" width="450" fill="#ffb703" y="-37.499999" height="449.999989" fill-opacity="1"/><path stroke-linecap="butt" transform="matrix(0.75, 0, 0, 0.75, 0.0000045, 0)" fill="none" stroke-linejoin="miter" d="M 258.458328 18.125 L 321.088536 152.328125 C 326.557286 164.036459 335.963536 173.442709 347.67187 178.911459 L 481.874995 241.541667 C 485.161453 243.072917 487.26562 246.375 487.26562 250 C 487.26562 253.625 485.161453 256.927084 481.874995 258.458334 L 347.67187 321.088542 C 335.963536 326.557292 326.557286 335.963542 321.088536 347.671876 L 258.458328 481.875001 C 256.927078 485.161459 253.624994 487.265626 249.999994 487.265626 C 246.374994 487.265626 243.072911 485.161459 241.541661 481.875001 L 178.911453 347.671876 C 173.442703 335.963542 164.036453 326.557292 152.328119 321.088542 L 18.124994 258.458334 C 14.838536 256.927084 12.734369 253.625 12.734369 250 C 12.734369 246.375 14.838536 243.072917 18.124994 241.541667 L 152.328119 178.911459 C 164.036453 173.442709 173.442703 164.036459 178.911453 152.328125 L 241.541661 18.125 C 243.072911 14.838542 246.374994 12.734375 249.999994 12.734375 C 253.624994 12.734375 256.927078 14.838542 258.458328 18.125 Z M 258.458328 18.125 " stroke="#000000" stroke-width="40" stroke-opacity="1" stroke-miterlimit="4"/></g></g></svg>